<svg
  width="72"
  height="72"
  viewBox="0 0 72 72"
  fill="none"
  xmlns="http://www.w3.org/2000/svg"
>
  <mask
    id="mask0_502_2"
    style="mask-type: alpha"
    maskUnits="userSpaceOnUse"
    x="0"
    y="0"
    width="72"
    height="72"
  >
    <rect
      x="36"
      y="0.644653"
      width="50"
      height="50"
      transform="rotate(45 36 0.644653)"
      fill="#D9D9D9"
    />
  </mask>
  <g mask="url(#mask0_502_2)">
    <mask id="path-2-inside-1_502_2" fill="white">
      <path d="M62.9568 31.1825H31.4031V62.7362H62.9568V31.1825Z" />
    </mask>
    <path
      d="M31.4031 31.1825H21.4031V21.1825H31.4031V31.1825ZM62.9568 41.1825H31.4031V21.1825H62.9568V41.1825ZM41.4031 31.1825V62.7362H21.4031V31.1825H41.4031Z"
      fill="white"
      mask="url(#path-2-inside-1_502_2)"
    />
    <mask id="path-4-inside-2_502_2" fill="white">
      <path d="M41.5538 10V41.5538H10V10H41.5538Z" />
    </mask>
    <path
      d="M41.5538 41.5538V51.5538H51.5538V41.5538H41.5538ZM31.5538 10V41.5538H51.5538V10H31.5538ZM41.5538 31.5538H10V51.5538H41.5538V31.5538Z"
      fill="white"
      mask="url(#path-4-inside-2_502_2)"
    />
  </g>
</svg>
