<svg width="50" height="50" viewBox="0 0 50 50" fill="none" xmlns="http://www.w3.org/2000/svg">
<mask id="mask0_351_89" style="mask-type:alpha" maskUnits="userSpaceOnUse" x="0" y="0" width="50" height="50">
<rect width="50" height="50" fill="#D9D9D9"/>
</mask>
<g mask="url(#mask0_351_89)">
<path d="M9.93122 32.726L29.5198 13.6119L36.3874 20.4796L17.1155 40.2272L10.7734 39.4306L9.93122 32.726Z" fill="#094067"/>
<path d="M32.9922 12.8334C32.2112 12.0524 32.2112 10.786 32.9922 10.005L34.583 8.41421C35.364 7.63317 36.6304 7.63316 37.4114 8.41421L41.4507 12.4534C42.2317 13.2345 42.2317 14.5008 41.4507 15.2819L39.8599 16.8727C39.0788 17.6537 37.8125 17.6537 37.0315 16.8727L32.9922 12.8334Z" fill="#094067"/>
<path d="M31.578 11.4192L32.8783 10.1189L39.746 16.9866L38.4457 18.2869L31.578 11.4192Z" fill="#094067"/>
</g>
</svg>
