<svg width="50" height="50" viewBox="0 0 50 50" fill="none" xmlns="http://www.w3.org/2000/svg">
<mask id="mask0_351_100" style="mask-type:alpha" maskUnits="userSpaceOnUse" x="0" y="0" width="50" height="50">
<rect width="50" height="50" fill="#D9D9D9"/>
</mask>
<g mask="url(#mask0_351_100)">
<path d="M4 6C4 4.34315 5.34315 3 7 3H27.6173C29.2741 3 30.6173 4.34315 30.6173 6V19.5556C30.6173 21.2124 29.2741 22.5556 27.6173 22.5556H15.4074H14.0494C12.8494 22.5556 11.8765 23.5284 11.8765 24.7284V24.7284C11.8765 25.9284 12.8494 26.9012 14.0494 26.9012H15.4074H27.6173C29.2741 26.9012 30.6173 28.2444 30.6173 29.9012V44C30.6173 45.6569 29.2741 47 27.6173 47H7C5.34314 47 4 45.6569 4 44V6Z" fill="#3DA9FC"/>
<rect x="30.6173" y="22.5556" width="5.97531" height="4.34568" fill="#3DA9FC"/>
<rect x="9.4321" y="22.5556" width="5.97531" height="4.34568" fill="#3DA9FC"/>
<rect x="24.642" y="18.2099" width="5.97531" height="4.34568" fill="#3DA9FC"/>
<rect x="24.642" y="26.9012" width="5.97531" height="4.34568" fill="#3DA9FC"/>
<path d="M45.284 24.7285L34.6914 33.6667L34.6914 15.7902L45.284 24.7285Z" fill="#3DA9FC"/>
</g>
</svg>
