<svg width="50" height="50" viewBox="0 0 50 50" fill="none" xmlns="http://www.w3.org/2000/svg">
<mask id="mask0_351_82" style="mask-type:alpha" maskUnits="userSpaceOnUse" x="0" y="0" width="50" height="50">
<rect width="50" height="50" fill="#D9D9D9"/>
</mask>
<g mask="url(#mask0_351_82)">
<path fill-rule="evenodd" clip-rule="evenodd" d="M4.58511 26.7433C3.80496 25.4545 3.80496 23.841 4.58511 22.5522C8.77634 15.6279 16.3801 11 25.0648 11C33.7495 11 41.3532 15.6279 45.5445 22.5522C46.3246 23.841 46.3246 25.4545 45.5445 26.7433C41.3532 33.6676 33.7495 38.2955 25.0648 38.2955C16.3801 38.2955 8.77634 33.6676 4.58511 26.7433ZM24.9238 35.2286C30.8521 35.2286 35.658 30.4228 35.658 24.4944C35.658 18.5661 30.8521 13.7602 24.9238 13.7602C18.9954 13.7602 14.1896 18.5661 14.1896 24.4944C14.1896 30.4228 18.9954 35.2286 24.9238 35.2286ZM24.9238 30.6283C28.3114 30.6283 31.0576 27.8821 31.0576 24.4944C31.0576 21.1068 28.3114 18.3606 24.9238 18.3606C21.5362 18.3606 18.79 21.1068 18.79 24.4944C18.79 27.8821 21.5362 30.6283 24.9238 30.6283Z" fill="#094067"/>
</g>
</svg>
